<?xml version="1.0" encoding="UTF-8" standalone="no"?>
<svg
   xmlns:dc="http://purl.org/dc/elements/1.1/"
   xmlns:cc="http://creativecommons.org/ns#"
   xmlns:rdf="http://www.w3.org/1999/02/22-rdf-syntax-ns#"
   xmlns:svg="http://www.w3.org/2000/svg"
   xmlns="http://www.w3.org/2000/svg"
   viewBox="0 0 30.997334 30.997334"
   height="30.997334"
   width="30.997334"
   xml:space="preserve"
   id="svg2"
   version="1.1"><metadata
     id="metadata8"><rdf:RDF><cc:Work
         rdf:about=""><dc:format>image/svg+xml</dc:format><dc:type
           rdf:resource="http://purl.org/dc/dcmitype/StillImage" /></cc:Work></rdf:RDF></metadata><defs
     id="defs6"><clipPath
       id="clipPath18"
       clipPathUnits="userSpaceOnUse"><path
         id="path16"
         d="M 0,23.248 H 23.248 V 0 H 0 Z" /></clipPath></defs><g
     transform="matrix(1.3333333,0,0,-1.3333333,0,30.997333)"
     id="g10"><g
       id="g12"><g
         clip-path="url(#clipPath18)"
         id="g14"><g
           transform="translate(16.1943,11.624)"
           id="g20"><path
             id="path22"
             style="fill:none;stroke:#7d8386;stroke-width:1;stroke-linecap:round;stroke-linejoin:round;stroke-miterlimit:10;stroke-dasharray:none;stroke-opacity:1"
             d="m 0,0 c 0,-2.524 -2.046,-4.57 -4.57,-4.57 -2.525,0 -4.571,2.046 -4.571,4.57 0,2.524 2.046,4.57 4.571,4.57 C -2.046,4.57 0,2.524 0,0 Z" /></g><g
           transform="translate(22.748,10.0131)"
           id="g24"><path
             id="path26"
             style="fill:none;stroke:#7d8386;stroke-width:1;stroke-linecap:round;stroke-linejoin:round;stroke-miterlimit:10;stroke-dasharray:none;stroke-opacity:1"
             d="m 0,0 v 3.222 h -2.002 c -0.247,1.353 -0.786,2.602 -1.551,3.682 l 1.434,1.434 -2.278,2.278 -1.443,-1.443 c -1.08,0.749 -2.327,1.271 -3.674,1.507 v 2.055 h -3.22 V 10.68 c -1.347,-0.236 -2.594,-0.758 -3.674,-1.507 l -1.443,1.443 -2.278,-2.278 1.434,-1.434 c -0.765,-1.08 -1.304,-2.329 -1.551,-3.682 h -2.002 V 0 h 1.983 c 0.231,-1.37 0.755,-2.639 1.517,-3.735 l -1.381,-1.381 2.278,-2.278 1.372,1.372 c 1.096,-0.778 2.367,-1.32 3.745,-1.561 v -1.93 h 3.22 v 1.93 c 1.377,0.241 2.649,0.783 3.745,1.561 l 1.372,-1.372 2.278,2.278 -1.381,1.381 c 0.762,1.096 1.286,2.365 1.517,3.735 z" /></g></g></g></g></svg>