<?xml version="1.0" encoding="UTF-8" standalone="no"?>
<svg
   xmlns:dc="http://purl.org/dc/elements/1.1/"
   xmlns:cc="http://creativecommons.org/ns#"
   xmlns:rdf="http://www.w3.org/1999/02/22-rdf-syntax-ns#"
   xmlns:svg="http://www.w3.org/2000/svg"
   xmlns="http://www.w3.org/2000/svg"
   viewBox="0 0 38.471466 45.416668"
   height="45.416668"
   width="38.471466"
   xml:space="preserve"
   id="svg2"
   version="1.1"><metadata
     id="metadata8"><rdf:RDF><cc:Work
         rdf:about=""><dc:format>image/svg+xml</dc:format><dc:type
           rdf:resource="http://purl.org/dc/dcmitype/StillImage" /></cc:Work></rdf:RDF></metadata><defs
     id="defs6"><clipPath
       id="clipPath18"
       clipPathUnits="userSpaceOnUse"><path
         id="path16"
         d="M 0,34.063 H 28.854 V 0 H 0 Z" /></clipPath></defs><g
     transform="matrix(1.3333333,0,0,-1.3333333,0,45.416667)"
     id="g10"><g
       id="g12"><g
         clip-path="url(#clipPath18)"
         id="g14"><g
           transform="translate(15.6373,30.875)"
           id="g20"><path
             id="path22"
             style="fill:none;stroke:#ffffff;stroke-width:2;stroke-linecap:butt;stroke-linejoin:miter;stroke-miterlimit:10;stroke-dasharray:none;stroke-opacity:1"
             d="M 0,0 C 0,0 -8.625,1.25 -10,-7.375 -11.375,-16 -12.375,-18.25 -13.5,-19.5 l -1.125,-1.25 c 0,0 0.125,-4 14.625,-4" /></g><g
           transform="translate(13.2164,30.875)"
           id="g24"><path
             id="path26"
             style="fill:none;stroke:#ffffff;stroke-width:2;stroke-linecap:butt;stroke-linejoin:miter;stroke-miterlimit:10;stroke-dasharray:none;stroke-opacity:1"
             d="M 0,0 C 0,0 8.625,1.25 10,-7.375 11.375,-16 12.375,-18.25 13.5,-19.5 l 1.125,-1.25 c 0,0 -0.125,-4 -14.625,-4" /></g><g
           transform="translate(17.2252,6.2622)"
           id="g28"><path
             id="path30"
             style="fill:none;stroke:#ffffff;stroke-width:2;stroke-linecap:butt;stroke-linejoin:miter;stroke-miterlimit:10;stroke-dasharray:none;stroke-opacity:1"
             d="m 0,0 c 0.364,-0.539 0.576,-1.188 0.576,-1.887 0,-1.864 -1.511,-3.375 -3.375,-3.375 -1.863,0 -3.375,1.511 -3.375,3.375 0,0.641 0.18,1.241 0.49,1.752" /></g><g
           transform="translate(12.8951,30.9063)"
           id="g32"><path
             id="path34"
             style="fill:none;stroke:#ffffff;stroke-width:2;stroke-linecap:butt;stroke-linejoin:miter;stroke-miterlimit:10;stroke-dasharray:none;stroke-opacity:1"
             d="m 0,0 v 0.625 c 0,0.842 0.689,1.531 1.531,1.531 0.843,0 1.532,-0.689 1.532,-1.531 L 3.063,0" /></g></g></g></g></svg>