<svg
   xmlns:dc="http://purl.org/dc/elements/1.1/"
   xmlns:cc="http://creativecommons.org/ns#"
   xmlns:rdf="http://www.w3.org/1999/02/22-rdf-syntax-ns#"
   xmlns:svg="http://www.w3.org/2000/svg"
   xmlns="http://www.w3.org/2000/svg"
   viewBox="0 0 43.333332 47.333332"
   height="47.333332"
   width="43.333332"
   xml:space="preserve"
   id="svg2"
   version="1.1"><metadata
     id="metadata8"><rdf:RDF><cc:Work
         rdf:about=""><dc:format>image/svg+xml</dc:format><dc:type
           rdf:resource="http://purl.org/dc/dcmitype/StillImage" /></cc:Work></rdf:RDF></metadata><defs
     id="defs6"><clipPath
       id="clipPath18"
       clipPathUnits="userSpaceOnUse"><path
         id="path16"
         d="M 0,35.5 H 32.5 V 0 H 0 Z" /></clipPath></defs><g
     transform="matrix(1.3333333,0,0,-1.3333333,0,47.333333)"
     id="g10"><g
       id="g12"><g
         clip-path="url(#clipPath18)"
         id="g14"><g
           transform="translate(4.2503,19.75)"
           id="g20"><path
             id="path22"
             style="fill:none;stroke:#8269b2;stroke-width:1.5;stroke-linecap:round;stroke-linejoin:miter;stroke-miterlimit:10;stroke-dasharray:none;stroke-opacity:1"
             d="M 0,0 V -19" /></g><g
           transform="translate(4.2503,34.75)"
           id="g24"><path
             id="path26"
             style="fill:none;stroke:#8269b2;stroke-width:1.5;stroke-linecap:round;stroke-linejoin:miter;stroke-miterlimit:10;stroke-dasharray:none;stroke-opacity:1"
             d="M 0,0 V -5" /></g><g
           transform="translate(7.7503,26.25)"
           id="g28"><path
             id="path30"
             style="fill:none;stroke:#8269b2;stroke-width:1.5;stroke-linecap:round;stroke-linejoin:miter;stroke-miterlimit:10;stroke-dasharray:none;stroke-opacity:1"
             d="M 0,0 C 0,-1.933 -1.567,-3.5 -3.5,-3.5 -5.434,-3.5 -7,-1.933 -7,0 -7,1.933 -5.434,3.5 -3.5,3.5 -1.567,3.5 0,1.933 0,0 Z" /></g><g
           transform="translate(16.2503,15.75)"
           id="g32"><path
             id="path34"
             style="fill:none;stroke:#8269b2;stroke-width:1.5;stroke-linecap:round;stroke-linejoin:miter;stroke-miterlimit:10;stroke-dasharray:none;stroke-opacity:1"
             d="M 0,0 V 19" /></g><g
           transform="translate(16.2503,0.75)"
           id="g36"><path
             id="path38"
             style="fill:none;stroke:#8269b2;stroke-width:1.5;stroke-linecap:round;stroke-linejoin:miter;stroke-miterlimit:10;stroke-dasharray:none;stroke-opacity:1"
             d="M 0,0 V 5" /></g><g
           transform="translate(19.7503,9.25)"
           id="g40"><path
             id="path42"
             style="fill:none;stroke:#8269b2;stroke-width:1.5;stroke-linecap:round;stroke-linejoin:miter;stroke-miterlimit:10;stroke-dasharray:none;stroke-opacity:1"
             d="M 0,0 C 0,1.933 -1.567,3.5 -3.5,3.5 -5.434,3.5 -7,1.933 -7,0 c 0,-1.933 1.566,-3.5 3.5,-3.5 1.933,0 3.5,1.567 3.5,3.5 z" /></g><g
           transform="translate(28.2503,15.75)"
           id="g44"><path
             id="path46"
             style="fill:none;stroke:#8269b2;stroke-width:1.5;stroke-linecap:round;stroke-linejoin:miter;stroke-miterlimit:10;stroke-dasharray:none;stroke-opacity:1"
             d="M 0,0 V -15" /></g><g
           transform="translate(28.2503,34.75)"
           id="g48"><path
             id="path50"
             style="fill:none;stroke:#8269b2;stroke-width:1.5;stroke-linecap:round;stroke-linejoin:miter;stroke-miterlimit:10;stroke-dasharray:none;stroke-opacity:1"
             d="M 0,0 V -9" /></g><g
           transform="translate(31.7503,22.25)"
           id="g52"><path
             id="path54"
             style="fill:none;stroke:#8269b2;stroke-width:1.5;stroke-linecap:round;stroke-linejoin:miter;stroke-miterlimit:10;stroke-dasharray:none;stroke-opacity:1"
             d="M 0,0 C 0,-1.933 -1.567,-3.5 -3.5,-3.5 -5.434,-3.5 -7,-1.933 -7,0 -7,1.933 -5.434,3.5 -3.5,3.5 -1.567,3.5 0,1.933 0,0 Z" /></g></g></g></g></svg>