<svg width="48.644" height="48.644" version="1.1" viewBox="0 0 48.643867 48.644001" xml:space="preserve" xmlns="http://www.w3.org/2000/svg" xmlns:cc="http://creativecommons.org/ns#" xmlns:dc="http://purl.org/dc/elements/1.1/" xmlns:rdf="http://www.w3.org/1999/02/22-rdf-syntax-ns#"><metadata><rdf:rdf><cc:work rdf:about=""><dc:format>image/svg+xml</dc:format><dc:type rdf:resource="http://purl.org/dc/dcmitype/StillImage"></dc:type></cc:work></rdf:rdf></metadata><defs><clipPath id="a"><path d="M 0,36.483 H 36.483 V 0 H 0 Z"></path></clipPath></defs><g transform="matrix(1.3333 0 0 -1.3333 0 48.644)"><g transform="translate(25.232 25.232)"><path d="m0 0-13.98-13.98" fill="none" stroke="#8269b2" stroke-linecap="round" stroke-miterlimit="10" stroke-width="1.5"></path></g><g clip-path="url(#a)"><g transform="translate(10.992 22.571)"><path d="m0 0c0-1.613 1.308-2.92 2.921-2.92 1.612 0 2.92 1.307 2.92 2.92 0 1.612-1.308 2.92-2.92 2.92-1.613 0-2.921-1.308-2.921-2.92z" fill="none" stroke="#8269b2" stroke-linecap="round" stroke-miterlimit="10" stroke-width="1.5"></path></g><g transform="translate(19.651 13.912)"><path d="m0 0c0-1.613 1.308-2.92 2.92-2.92 1.613 0 2.92 1.307 2.92 2.92s-1.307 2.92-2.92 2.92c-1.612 0-2.92-1.307-2.92-2.92z" fill="none" stroke="#8269b2" stroke-linecap="round" stroke-miterlimit="10" stroke-width="1.5"></path></g><g transform="translate(32.831 15.339)"><path d="m0 0 2.901 2.902-2.901 2.902 1.57 3.792-3.792 1.571v4.104h-4.103l-1.571 3.791-3.792-1.57-2.902 2.902-2.902-2.902-3.791 1.57-1.571-3.791h-4.104v-4.104l-3.792-1.571 1.57-3.792-2.901-2.902 2.901-2.902-1.57-3.792 3.792-1.57v-4.104h4.104l1.571-3.792 3.791 1.571 2.902-2.902 2.902 2.902 3.792-1.571 1.571 3.792h4.103v4.104l3.792 1.57z" fill="none" stroke="#8269b2" stroke-linecap="round" stroke-linejoin="round" stroke-miterlimit="10" stroke-width="1.5"></path></g></g></g></svg>