<svg width="48" height="41.167">
  <defs>
    <clipPath id="a">
      <path d="M0 30.875h36V0H0z"/>
    </clipPath>
  </defs>
  <g clip-path="url(#a)" transform="matrix(1.33333 0 0 -1.33333 0 41.167)">
    <path fill="none" stroke="#8269b2" stroke-linecap="round" stroke-linejoin="round" stroke-miterlimit="10" stroke-width="1.5" d="M35.25 30.125H7.167V3.958a3.21 3.21 0 0 0-6.417 0v20.709l6.417.239"/>
    <path fill="none" stroke="#8269b2" stroke-linecap="round" stroke-miterlimit="10" stroke-width="1.5" d="M3.958.75h28.084a3.209 3.209 0 0 1 3.208 3.208v26.167"/>
    <path fill="none" stroke="#8269b2" stroke-linecap="round" stroke-linejoin="round" stroke-miterlimit="10" stroke-width="1.5" d="M11.938 25.166h18.395M11.938 11.422h7.406M11.938 8.184h7.406M11.938 5.125h7.406M22.926 11.422h7.407M22.926 8.184h7.407M22.926 5.125h7.407M30.333 15.588H11.937v5.795h18.396z"/>
  </g>
</svg>
