<?xml version="1.0" encoding="UTF-8" standalone="no"?>
<svg
   xmlns:dc="http://purl.org/dc/elements/1.1/"
   xmlns:cc="http://creativecommons.org/ns#"
   xmlns:rdf="http://www.w3.org/1999/02/22-rdf-syntax-ns#"
   xmlns:svg="http://www.w3.org/2000/svg"
   xmlns="http://www.w3.org/2000/svg"
   viewBox="0 0 199.90533 47.013466"
   height="47.013466"
   width="199.90533"
   xml:space="preserve"
   id="svg2"
   version="1.1"><metadata
     id="metadata8"><rdf:RDF><cc:Work
         rdf:about=""><dc:format>image/svg+xml</dc:format><dc:type
           rdf:resource="http://purl.org/dc/dcmitype/StillImage" /></cc:Work></rdf:RDF></metadata><defs
     id="defs6"><clipPath
       id="clipPath18"
       clipPathUnits="userSpaceOnUse"><path
         id="path16"
         d="M 0,35.26 H 149.929 V 0 H 0 Z" /></clipPath></defs><g
     transform="matrix(1.3333333,0,0,-1.3333333,0,47.013467)"
     id="g10"><g
       id="g12"><g
         clip-path="url(#clipPath18)"
         id="g14"><g
           transform="translate(122.74,20.8075)"
           id="g20"><path
             id="path22"
             style="fill:#000000;fill-opacity:1;fill-rule:nonzero;stroke:none"
             d="M 0,0 C -3.694,2.339 -7.174,4.931 -10.468,7.75 -0.243,5.137 10.068,2.909 20.461,1.047 12.234,-4.72 3.84,-10.232 -4.724,-15.487 c 0.768,4.461 2.267,8.621 4.451,12.631 C 0.664,-1.957 1.195,-0.756 0,0 m 26.138,4.516 c -14.763,2.517 -29.362,5.83 -43.777,9.89 -1.533,0.432 -4.64,-2.245 -3.19,-3.755 4.047,-4.211 8.406,-7.963 13.104,-11.334 -37.206,-3.711 -74.61,-4.964 -111.987,-3.75 -1.863,0.06 -4.525,-4.041 -1.982,-4.123 39.065,-1.269 78.159,0.163 117.026,4.273 -2.438,-4.889 -3.892,-9.999 -4.515,-15.509 -0.186,-1.649 1.982,-0.884 2.615,-0.502 11.033,6.664 21.79,13.75 32.268,21.255 1.049,0.752 2.514,3.201 0.438,3.555" /></g></g></g></g></svg>