<?xml version="1.0" encoding="UTF-8" standalone="no"?>
<svg
   xmlns:dc="http://purl.org/dc/elements/1.1/"
   xmlns:cc="http://creativecommons.org/ns#"
   xmlns:rdf="http://www.w3.org/1999/02/22-rdf-syntax-ns#"
   xmlns:svg="http://www.w3.org/2000/svg"
   xmlns="http://www.w3.org/2000/svg"
   viewBox="0 0 32.332668 29.25"
   height="29.25"
   width="32.332668"
   xml:space="preserve"
   id="svg2"
   version="1.1"><metadata
     id="metadata8"><rdf:RDF><cc:Work
         rdf:about=""><dc:format>image/svg+xml</dc:format><dc:type
           rdf:resource="http://purl.org/dc/dcmitype/StillImage" /></cc:Work></rdf:RDF></metadata><defs
     id="defs6"><clipPath
       id="clipPath18"
       clipPathUnits="userSpaceOnUse"><path
         id="path16"
         d="M 0,21.937 H 24.249 V 0 H 0 Z" /></clipPath></defs><g
     transform="matrix(1.3333333,0,0,-1.3333333,0,29.25)"
     id="g10"><g
       id="g12"><g
         clip-path="url(#clipPath18)"
         id="g14"><g
           transform="translate(2.812,10.9687)"
           id="g20"><path
             id="path22"
             style="fill:none;stroke:#7d8386;stroke-width:1;stroke-linecap:round;stroke-linejoin:miter;stroke-miterlimit:10;stroke-dasharray:none;stroke-opacity:1"
             d="m 0,0 c 0,5.782 4.687,10.469 10.469,10.469 5.781,0 10.468,-4.687 10.468,-10.469 0,-5.782 -4.687,-10.469 -10.468,-10.469" /></g><g
           transform="translate(5.1235,12.188)"
           id="g24"><path
             id="path26"
             style="fill:none;stroke:#7d8386;stroke-width:1;stroke-linecap:round;stroke-linejoin:miter;stroke-miterlimit:10;stroke-dasharray:none;stroke-opacity:1"
             d="M 0,0 -2.312,-2.312 -4.623,0" /></g><g
           transform="translate(10.8618,16.042)"
           id="g28"><path
             id="path30"
             style="fill:none;stroke:#7d8386;stroke-width:1;stroke-linecap:round;stroke-linejoin:miter;stroke-miterlimit:10;stroke-dasharray:none;stroke-opacity:1"
             d="M 0,0 V -11.036" /></g><g
           transform="translate(9.3745,16.3086)"
           id="g32"><path
             id="path34"
             style="fill:none;stroke:#7d8386;stroke-width:1;stroke-linecap:round;stroke-linejoin:miter;stroke-miterlimit:10;stroke-dasharray:none;stroke-opacity:1"
             d="m 0,0 c 0.049,0.002 1.587,0.004 1.637,0.004 h 3.868 c 1.516,0 2.745,-1.229 2.745,-2.746 0,-1.516 -1.229,-2.745 -2.745,-2.745 H 1.637" /></g><g
           transform="translate(9.3745,8.3125)"
           id="g36"><path
             id="path38"
             style="fill:none;stroke:#7d8386;stroke-width:1;stroke-linecap:round;stroke-linejoin:miter;stroke-miterlimit:10;stroke-dasharray:none;stroke-opacity:1"
             d="M 0,0 H 6.544" /></g></g></g></g></svg>