<?xml version="1.0" encoding="UTF-8" standalone="no"?>
<svg
   xmlns:dc="http://purl.org/dc/elements/1.1/"
   xmlns:cc="http://creativecommons.org/ns#"
   xmlns:rdf="http://www.w3.org/1999/02/22-rdf-syntax-ns#"
   xmlns:svg="http://www.w3.org/2000/svg"
   xmlns="http://www.w3.org/2000/svg"
   viewBox="0 0 24.990534 25.4436"
   height="25.4436"
   width="24.990534"
   xml:space="preserve"
   id="svg2"
   version="1.1"><metadata
     id="metadata8"><rdf:RDF><cc:Work
         rdf:about=""><dc:format>image/svg+xml</dc:format><dc:type
           rdf:resource="http://purl.org/dc/dcmitype/StillImage" /></cc:Work></rdf:RDF></metadata><defs
     id="defs6"><clipPath
       id="clipPath18"
       clipPathUnits="userSpaceOnUse"><path
         id="path16"
         d="M 0,19.083 H 18.743 V 0 H 0 Z" /></clipPath><clipPath
       id="clipPath34"
       clipPathUnits="userSpaceOnUse"><path
         id="path32"
         d="M 0,19.083 H 18.743 V 0 H 0 Z" /></clipPath></defs><g
     transform="matrix(1.3333333,0,0,-1.3333333,0,25.4436)"
     id="g10"><g
       id="g12"><g
         clip-path="url(#clipPath18)"
         id="g14"><g
           transform="translate(9.8744,8.5533)"
           id="g20"><path
             id="path22"
             style="fill:none;stroke:#7d8386;stroke-width:1;stroke-linecap:round;stroke-linejoin:round;stroke-miterlimit:10;stroke-dasharray:none;stroke-opacity:1"
             d="M 0,0 4.336,4.335 5.4,4.563 8.296,7.952 6.682,9.565 3.314,6.649 3.054,5.496 -1.281,1.16 l -0.812,0.811 -7.209,-7.209 2.816,-2.815 7.209,7.209 z" /></g></g></g><g
       transform="translate(8.0736,8.0006)"
       id="g24"><path
         id="path26"
         style="fill:none;stroke:#7d8386;stroke-width:1;stroke-linecap:round;stroke-linejoin:round;stroke-miterlimit:10;stroke-dasharray:none;stroke-opacity:1"
         d="M 0,0 -5.061,-5.061" /></g><g
       id="g28"><g
         clip-path="url(#clipPath34)"
         id="g30"><g
           transform="translate(8.7758,11.9274)"
           id="g36"><path
             id="path38"
             style="fill:none;stroke:#7d8386;stroke-width:1;stroke-linecap:round;stroke-linejoin:round;stroke-miterlimit:10;stroke-dasharray:none;stroke-opacity:1"
             d="m 0,0 -2.227,2.226 c 0.51,1.161 0.297,2.562 -0.653,3.512 -0.996,0.996 -2.484,1.175 -3.675,0.566 l 2.119,-2.119 -1.37,-1.37 -2.119,2.119 c -0.608,-1.19 -0.429,-2.679 0.567,-3.675 0.95,-0.95 2.351,-1.163 3.511,-0.653 l 1.429,-1.429" /></g><g
           transform="translate(11.1156,6.3463)"
           id="g40"><path
             id="path42"
             style="fill:none;stroke:#7d8386;stroke-width:1;stroke-linecap:round;stroke-linejoin:round;stroke-miterlimit:10;stroke-dasharray:none;stroke-opacity:1"
             d="M 0,0 1.078,-1.077 C 0.568,-2.238 0.781,-3.639 1.731,-4.589 2.728,-5.585 4.216,-5.764 5.406,-5.156 l -2.119,2.12 1.37,1.37 2.119,-2.12 C 7.385,-2.595 7.206,-1.106 6.21,-0.11 5.26,0.84 3.858,1.053 2.698,0.543 L 0.863,2.378" /></g></g></g></g></svg>