<svg width="48" height="41.167" version="1.1" viewBox="0 0 48 41.166668" xml:space="preserve" xmlns="http://www.w3.org/2000/svg" xmlns:cc="http://creativecommons.org/ns#" xmlns:dc="http://purl.org/dc/elements/1.1/" xmlns:rdf="http://www.w3.org/1999/02/22-rdf-syntax-ns#"><metadata><rdf:rdf><cc:work rdf:about=""><dc:format>image/svg+xml</dc:format><dc:type rdf:resource="http://purl.org/dc/dcmitype/StillImage"></dc:type></cc:work></rdf:rdf></metadata><defs><clipPath id="a"><path d="m0 30.875h36v-30.875h-36z"></path></clipPath></defs><g transform="matrix(1.3333 0 0 -1.3333 0 41.167)"><g clip-path="url(#a)"><g transform="translate(35.25,30.125)"><path d="m0 0h-28.083v-26.167c0-1.771-1.437-3.208-3.209-3.208-1.771 0-3.208 1.437-3.208 3.208v20.709l6.417 0.239" fill="none" stroke="#8269b2" stroke-linecap="round" stroke-linejoin="round" stroke-miterlimit="10" stroke-width="1.5"></path></g><g transform="translate(3.958 .75)"><path d="m0 0h28.084c1.771 0 3.208 1.437 3.208 3.208v26.167" fill="none" stroke="#8269b2" stroke-linecap="round" stroke-miterlimit="10" stroke-width="1.5"></path></g><g transform="translate(11.938 25.166)"><path d="m0 0h18.396" fill="none" stroke="#8269b2" stroke-linecap="round" stroke-linejoin="round" stroke-miterlimit="10" stroke-width="1.5"></path></g><g transform="translate(11.938 11.422)"><path d="m0 0h7.407" fill="none" stroke="#8269b2" stroke-linecap="round" stroke-linejoin="round" stroke-miterlimit="10" stroke-width="1.5"></path></g><g transform="translate(11.938 8.1836)"><path d="m0 0h7.407" fill="none" stroke="#8269b2" stroke-linecap="round" stroke-linejoin="round" stroke-miterlimit="10" stroke-width="1.5"></path></g><g transform="translate(11.938 5.125)"><path d="m0 0h7.407" fill="none" stroke="#8269b2" stroke-linecap="round" stroke-linejoin="round" stroke-miterlimit="10" stroke-width="1.5"></path></g><g transform="translate(22.926 11.422)"><path d="m0 0h7.407" fill="none" stroke="#8269b2" stroke-linecap="round" stroke-linejoin="round" stroke-miterlimit="10" stroke-width="1.5"></path></g><g transform="translate(22.926 8.1836)"><path d="m0 0h7.407" fill="none" stroke="#8269b2" stroke-linecap="round" stroke-linejoin="round" stroke-miterlimit="10" stroke-width="1.5"></path></g><g transform="translate(22.926 5.125)"><path d="m0 0h7.407" fill="none" stroke="#8269b2" stroke-linecap="round" stroke-linejoin="round" stroke-miterlimit="10" stroke-width="1.5"></path></g><path d="m30.333 15.588h-18.396v5.795h18.396z" fill="none" stroke="#8269b2" stroke-linecap="round" stroke-linejoin="round" stroke-miterlimit="10" stroke-width="1.5"></path></g></g></svg>