<svg width="45.333" height="41.781" version="1.1" viewBox="0 0 45.333332 41.781467" xml:space="preserve" xmlns="http://www.w3.org/2000/svg" xmlns:cc="http://creativecommons.org/ns#" xmlns:dc="http://purl.org/dc/elements/1.1/" xmlns:rdf="http://www.w3.org/1999/02/22-rdf-syntax-ns#"><metadata><rdf:rdf><cc:work rdf:about=""><dc:format>image/svg+xml</dc:format><dc:type rdf:resource="http://purl.org/dc/dcmitype/StillImage"></dc:type></cc:work></rdf:rdf></metadata><defs><clipPath><path d="m0 31.336h34v-31.336h-34z"></path></clipPath></defs><g transform="matrix(1.3333 0 0 -1.3333 0 41.781)"><g clip-path="url(#a)"><g transform="translate(31.119 17.488)"><path d="m0 0v5.639h-26.64c-2.059 0-3.729 1.67-3.729 3.729 0 2.06 1.67 3.73 3.729 3.73h24.909v-7.282" fill="none" stroke="#8269b2" stroke-linecap="round" stroke-linejoin="round" stroke-miterlimit="10" stroke-width="1.5"></path></g><g transform="translate(31.119 .75)"><path d="m0 0h-26.64c-2.059 0-3.729 1.67-3.729 3.729v22.91" fill="none" stroke="#8269b2" stroke-linecap="round" stroke-linejoin="round" stroke-miterlimit="10" stroke-width="1.5"></path></g><g transform="translate(33.25,7.6406)"><path d="m0 0h-5.328c-2.06 0-3.73 1.67-3.73 3.729v2.132c0 2.059 1.67 3.729 3.73 3.729h5.328v-9.59" fill="none" stroke="#8269b2" stroke-linecap="round" stroke-linejoin="round" stroke-miterlimit="10" stroke-width="1.5"></path></g><g transform="translate(31.651 .75)"><path d="m0 0v6.394" fill="none" stroke="#8269b2" stroke-linecap="round" stroke-linejoin="round" stroke-miterlimit="10" stroke-width="1.5"></path></g><g transform="translate(5.3955,23.127)"><path d="m0 0v4.107h20.662v-4.107" fill="none" stroke="#8269b2" stroke-linecap="round" stroke-linejoin="round" stroke-miterlimit="10" stroke-width="1.5"></path></g><g transform="translate(29.188 12.436)"><path fill="none" stroke="#8269b2" d="m0 0c0-0.644-0.521-1.165-1.165-1.165-0.645 0-1.166 0.521-1.166 1.165s0.521 1.166 1.166 1.166c0.644 0 1.165-0.522 1.165-1.166"></path></g></g></g></svg>