<?xml version="1.0" encoding="UTF-8" standalone="no"?>
<svg
   xmlns:dc="http://purl.org/dc/elements/1.1/"
   xmlns:cc="http://creativecommons.org/ns#"
   xmlns:rdf="http://www.w3.org/1999/02/22-rdf-syntax-ns#"
   xmlns:svg="http://www.w3.org/2000/svg"
   xmlns="http://www.w3.org/2000/svg"
   viewBox="0 0 45.333332 41.781467"
   height="41.781467"
   width="45.333332"
   xml:space="preserve"
   id="svg2"
   version="1.1"><metadata
     id="metadata8"><rdf:RDF><cc:Work
         rdf:about=""><dc:format>image/svg+xml</dc:format><dc:type
           rdf:resource="http://purl.org/dc/dcmitype/StillImage" /></cc:Work></rdf:RDF></metadata><defs
     id="defs6"><clipPath
       id="clipPath18"
       clipPathUnits="userSpaceOnUse"><path
         id="path16"
         d="M 0,31.336 H 34 V 0 H 0 Z" /></clipPath></defs><g
     transform="matrix(1.3333333,0,0,-1.3333333,0,41.781467)"
     id="g10"><g
       id="g12"><g
         clip-path="url(#clipPath18)"
         id="g14"><g
           transform="translate(31.1191,17.4883)"
           id="g20"><path
             id="path22"
             style="fill:none;stroke:#8269b2;stroke-width:1.5;stroke-linecap:round;stroke-linejoin:round;stroke-miterlimit:10;stroke-dasharray:none;stroke-opacity:1"
             d="m 0,0 v 5.639 h -26.64 c -2.059,0 -3.729,1.67 -3.729,3.729 0,2.06 1.67,3.73 3.729,3.73 H -1.731 V 5.816" /></g><g
           transform="translate(31.1191,0.75)"
           id="g24"><path
             id="path26"
             style="fill:none;stroke:#8269b2;stroke-width:1.5;stroke-linecap:round;stroke-linejoin:round;stroke-miterlimit:10;stroke-dasharray:none;stroke-opacity:1"
             d="m 0,0 h -26.64 c -2.059,0 -3.729,1.67 -3.729,3.729 v 22.91" /></g><g
           transform="translate(33.25,7.6406)"
           id="g28"><path
             id="path30"
             style="fill:none;stroke:#8269b2;stroke-width:1.5;stroke-linecap:round;stroke-linejoin:round;stroke-miterlimit:10;stroke-dasharray:none;stroke-opacity:1"
             d="m 0,0 h -5.328 c -2.06,0 -3.73,1.67 -3.73,3.729 v 2.132 c 0,2.059 1.67,3.729 3.73,3.729 H 0 V 0" /></g><g
           transform="translate(31.6514,0.75)"
           id="g32"><path
             id="path34"
             style="fill:none;stroke:#8269b2;stroke-width:1.5;stroke-linecap:round;stroke-linejoin:round;stroke-miterlimit:10;stroke-dasharray:none;stroke-opacity:1"
             d="M 0,0 V 6.394" /></g><g
           transform="translate(5.3955,23.127)"
           id="g36"><path
             id="path38"
             style="fill:none;stroke:#8269b2;stroke-width:1.5;stroke-linecap:round;stroke-linejoin:round;stroke-miterlimit:10;stroke-dasharray:none;stroke-opacity:1"
             d="M 0,0 V 4.107 H 20.662 V 0" /></g><g
           transform="translate(29.1875,12.4355)"
           id="g40"><path
             id="path42"
             style="fill:#8169ac;fill-opacity:1;fill-rule:nonzero;stroke:none"
             d="m 0,0 c 0,-0.644 -0.521,-1.165 -1.165,-1.165 -0.645,0 -1.166,0.521 -1.166,1.165 0,0.644 0.521,1.166 1.166,1.166 C -0.521,1.166 0,0.644 0,0" /></g></g></g></g></svg>